<svg height="1024" width="1024" xmlns="http://www.w3.org/2000/svg"><path fill="none" d="M-1-1h1026v1026H-1z"/><g fill="#b00"><path d="M483.5 80.1C340 89.7 209.1 171.4 137.1 296.4 85.5 385.7 67.4 492.1 86.6 593c23.6 124.8 100.2 232.7 209.8 295.9 89.3 51.6 195.7 69.7 296.6 50.5 69.2-13.1 133-42 188-85.3 82.9-65.2 138.8-157.3 158.4-261.1 9.9-51.8 9.9-108.2 0-160-23.6-124.8-100.2-232.7-209.8-295.9-74.2-42.8-160.2-62.7-246.1-57zm-86.6 162.1c6.3 23.3 11.7 42.9 12 43.6.4.6 5.4-16.9 11.1-39 5.7-22.2 10.7-41.8 11.2-43.6l.9-3.2h34.1l-.7 2.7c-.3 1.6-9.4 31.6-20.1 66.8L426 333.6V425h-34v-92.5l-4-15.7c-4-15.7-14.9-49.5-29.9-92.6-4.5-12.8-8.1-23.5-8.1-23.8 0-.2 8-.4 17.8-.4h17.8l11.3 42.2zm130.8 15.9c7.6 2.6 13.8 7.2 18.9 14.1 9.1 12.4 10.9 27.1 10.1 79.3-.6 36.7-1.4 43.2-6.3 53.3-5.8 11.9-18.6 20.7-32.1 22-15.7 1.6-27.2-1.8-36.8-10.9-6.8-6.5-11-14.6-13.1-25.7-2.2-11.7-1.6-95 .8-102.7 5.2-17 18.2-29.1 34.1-31.5 7-1.1 17.9-.2 24.4 2.1zm84.3 66.4c0 56.4.2 68.1 1.4 71 2.9 6.8 10.6 5.5 19.2-3.2l5.4-5.5.2-64.7.3-64.6 15.3-.3 15.2-.3V425h-31V407.7l-5.7 5.5c-10.7 10.2-18.5 13.9-28.9 13.9-10.8 0-16.7-4.2-20.1-14.4-1.5-4.7-1.7-12.3-2.1-79.1-.2-40.6-.1-74.5.2-75.2.4-1.1 3.7-1.4 15.6-1.4h15v67.5zM630 457c41 1.7 71.6 4 81.5 6.1 2.8.6 8.8 2.9 13.5 5.1 6.9 3.3 10 5.6 16.6 12.3 14.8 14.9 19.4 29.6 23.5 75.5 2.9 33.6 2.7 116.5-.6 150-4.1 43.5-8.2 55.9-23.4 71-13.9 13.8-22 16.9-51.1 19.4-49.8 4.4-109.6 6-198.5 5.3-101.9-.9-158-4.2-173.9-10.1-16.5-6.3-30.5-20.1-36.5-36.2-7.6-20.1-11.2-61.1-11.2-126.4 0-54.6 2-84.6 7.2-111.7 2.4-12.6 4.6-18.3 10.6-27.5 7.5-11.5 18-19.7 31-24.5 12.8-4.6 64.3-8.3 137.3-9.7 29.7-.6 150 .4 174 1.4z"/><path d="M504.4 284.9c-1.8 1.1-3.9 3.7-5 6.2-1.8 4.1-1.9 7.7-2.2 47.2-.3 48 .1 52.7 5.8 57.9 6.7 6.2 15.6 4.1 20-4.7l2.5-5v-91l-2.4-4.8c-1.3-2.8-3.5-5.4-5.2-6.2-3.9-2.1-9.8-1.9-13.5.4zM307 529.5V545h35v191h34V545h36v-31H307v15.5zM529 625v111h29v-7.5c0-4.1.3-7.5.6-7.5.4 0 3.7 2.9 7.4 6.4 8.1 7.6 14.9 10.6 24.3 10.6 13.8-.1 21.9-8.3 24.6-25 1.4-8.7 1.4-110.3 0-118.9-3-18.7-14.3-28.2-30.3-25.2-7.6 1.4-12.5 4.1-20.1 11.2l-6.5 6.1V514h-29v111zm51.2-27.7c1 .7 2.9 3.2 4.1 5.7 2.2 4.4 2.2 5.4 2.5 47.2.4 48.4-.1 52.8-6 58.2-2.8 2.5-3.6 2.8-8.5 2.4-3.8-.3-6.6-1.3-9.6-3.4l-4.2-3-.3-50.6-.2-50.7 3.5-2.8c6.4-5.1 13.4-6.2 18.7-3zM676.2 569.1c-11.1 1.9-22 9.2-28.1 18.7-1.7 2.7-4.1 8.4-5.3 12.8-2.1 7.6-2.2 9.6-2.3 51.9 0 31 .4 45.5 1.2 49.1 2.5 10.4 5.4 16.4 10.9 22.4 9.4 10.1 18.7 14 33.3 14 14.7 0 23.4-3.4 31.7-12.2 9.3-9.8 12.4-18.9 12.4-36V679H700.3l-.7 10.6c-1.1 16.5-4.2 21.4-13.8 21.4-6.5 0-10.3-2.3-13.1-8-2-4.1-2.2-6.2-2.5-24.3l-.4-19.7H730v-22.1c0-31.1-2-41.7-10-52.5-9-12-27-18.3-43.8-15.3zm16.8 28.8c5.4 3.9 6.5 7.5 6.8 22.3l.4 13.8H670v-10.5c0-12.7 1.4-19.6 4.7-23.5 4.3-5.1 12.8-6.1 18.3-2.1zM416 639.7c0 39 .5 73.1 1 77.3 2 15.6 8.2 21.4 22 20.8 9.5-.4 16.6-3.8 26-12.5 3.7-3.5 7.1-6.3 7.4-6.3.3 0 .6 3.8.6 8.5v8.5h29V570h-29v127.1l-5.2 5.6c-2.9 3-6.5 6.1-8 6.9-2.9 1.5-8.6 1.8-10.5.6-3.1-1.9-3.3-7-3.3-73.3V570h-30v69.7z"/></g></svg>